<svg aria-hidden="true" style="position: absolute; width: 0; height: 0; overflow: hidden;" version="1.1" xmlns="http://www.w3.org/2000/svg" xmlns:xlink="http://www.w3.org/1999/xlink">
    <defs>
        <symbol id="left" viewBox="0 0 43 32">
            <path fill="#f7f5f5" style="fill: var(--color1, #f7f5f5); stroke: var(--color1, #f7f5f5)" stroke="#f7f5f5" stroke-linejoin="miter" stroke-linecap="butt" stroke-miterlimit="4" stroke-width="1.1831" d="M17.599 1.739l-0.418-0.418-13.191 13.191-1.423 1.488 1.433 1.498 13.182 13.181 2.995-2.995-9.591-9.591h29.288v-4.186h-29.288l9.591-9.591-2.577-2.577z"></path>
        </symbol>
        <symbol id="right" viewBox="0 0 43 32">
            <path fill="#f7f5f5" style="fill: var(--color1, #f7f5f5); stroke: var(--color1, #f7f5f5)" stroke="#f7f5f5" stroke-linejoin="miter" stroke-linecap="butt" stroke-miterlimit="4" stroke-width="1.1831" d="M25.068 1.739l0.418-0.418 13.191 13.191 1.423 1.488-1.433 1.498-13.182 13.181-2.995-2.995 9.591-9.591h-29.288v-4.186h29.288l-9.591-9.591 2.577-2.577z"></path>
        </symbol>
        <symbol id="linkedin" viewBox="0 0 19 19">
            <path d="M0.851562 3.41468C0.851562 2.83747 1.05427 2.36128 1.45967 1.98611C1.86507 1.61092 2.39211 1.42334 3.04075 1.42334C3.67782 1.42334 4.19326 1.60803 4.58708 1.97745C4.99248 2.3584 5.19519 2.85479 5.19519 3.46663C5.19519 4.02074 4.99829 4.48249 4.60446 4.85191C4.19906 5.23286 3.66623 5.42334 3.006 5.42334H2.98863C2.35156 5.42334 1.83612 5.23286 1.4423 4.85191C1.04847 4.47096 0.851562 3.99188 0.851562 3.41468ZM1.07743 18.5662V6.9991H4.93457V18.5662H1.07743ZM7.07164 18.5662H10.9288V12.1073C10.9288 11.7033 10.9751 11.3916 11.0678 11.1723C11.2299 10.7798 11.4761 10.4479 11.8062 10.1766C12.1363 9.90529 12.5504 9.76966 13.0485 9.76966C14.3458 9.76966 14.9944 10.6412 14.9944 12.3844V18.5662H18.8516V11.9342C18.8516 10.2256 18.4462 8.92983 17.6353 8.04671C16.8245 7.1636 15.7531 6.72204 14.4211 6.72204C12.9269 6.72204 11.7628 7.36273 10.9288 8.64412V8.67875H10.9114L10.9288 8.64412V6.9991H7.07164C7.0948 7.3685 7.10639 8.51712 7.10639 10.445C7.10639 12.3728 7.0948 15.0799 7.07164 18.5662Z" fill="#E3000B"/>
        </symbol>
        <symbol id="instagram" viewBox="0 0 19 20" fill="none">
            <path fill-rule="evenodd" clip-rule="evenodd" d="M0.851562 9.49463C0.851562 5.89949 0.851562 4.10192 1.70825 2.80718C2.09081 2.22902 2.58595 1.73388 3.16412 1.35132C4.45885 0.494629 6.25642 0.494629 9.85156 0.494629C13.4467 0.494629 15.2443 0.494629 16.539 1.35132C17.1172 1.73388 17.6123 2.22902 17.9949 2.80718C18.8516 4.10192 18.8516 5.89949 18.8516 9.49463C18.8516 13.0898 18.8516 14.8873 17.9949 16.1821C17.6123 16.7602 17.1172 17.2554 16.539 17.6379C15.2443 18.4946 13.4467 18.4946 9.85156 18.4946C6.25642 18.4946 4.45885 18.4946 3.16412 17.6379C2.58595 17.2554 2.09081 16.7602 1.70825 16.1821C0.851562 14.8873 0.851562 13.0898 0.851562 9.49463ZM14.5108 9.49486C14.5108 12.0682 12.4247 14.1543 9.8514 14.1543C7.27808 14.1543 5.19199 12.0682 5.19199 9.49486C5.19199 6.92154 7.27808 4.83545 9.8514 4.83545C12.4247 4.83545 14.5108 6.92154 14.5108 9.49486ZM9.8514 12.5779C11.5541 12.5779 12.9344 11.1976 12.9344 9.49486C12.9344 7.79216 11.5541 6.41185 9.8514 6.41185C8.14871 6.41185 6.7684 7.79216 6.7684 9.49486C6.7684 11.1976 8.14871 12.5779 9.8514 12.5779ZM14.6948 5.69618C15.2995 5.69618 15.7897 5.20601 15.7897 4.60135C15.7897 3.9967 15.2995 3.50653 14.6948 3.50653C14.0902 3.50653 13.6 3.9967 13.6 4.60135C13.6 5.20601 14.0902 5.69618 14.6948 5.69618Z" fill="#E3000B"/>
        </symbol>
        <symbol id="facebook" viewBox="0 0 11 20" fill="none">
            <path d="M7.31436 18.4946V10.284H10.2091L10.6424 7.08413H7.31428V5.04116C7.31428 4.11473 7.58446 3.48341 8.97991 3.48341L10.7596 3.48262V0.620701C10.4518 0.581775 9.39527 0.494629 8.16629 0.494629C5.60026 0.494629 3.84352 1.9858 3.84352 4.72435V7.08413H0.941406V10.284H3.84352V18.4946H7.31436V18.4946Z" fill="#E3000B"/>
        </symbol>
    </defs>
</svg>
